Coordinates
version=1
nRows=7
nColumns=63
inDegrees=yes

Units are S.I. units (second, meters, Newtons, ...)
If the header above contains a line with 'inDegrees', this indicates whether rotational values are in degrees (yes) or radians (no).

endheader
time	pelvis_tilt	pelvis_list	pelvis_rotation	pelvis_tx	pelvis_ty	pelvis_tz	hip_flexion_r	hip_adduction_r	hip_rotation_r	knee_angle_r	knee_angle_r_beta	ankle_angle_r	subtalar_angle_r	mtp_angle_r	hip_flexion_l	hip_adduction_l	hip_rotation_l	knee_angle_l	knee_angle_l_beta	ankle_angle_l	subtalar_angle_l	mtp_angle_l	L5_S1_Flex_Ext	L5_S1_Lat_Bending	L5_S1_axial_rotation	L4_L5_Flex_Ext	L4_L5_Lat_Bending	L4_L5_axial_rotation	L3_L4_Flex_Ext	L3_L4_Lat_Bending	L3_L4_axial_rotation	L2_L3_Flex_Ext	L2_L3_Lat_Bending	L2_L3_axial_rotation	L1_L2_Flex_Ext	L1_L2_Lat_Bending	L1_L2_axial_rotation	L1_T12_Flex_Ext	L1_T12_Lat_Bending	L1_T12_axial_rotation	Abs_r3	Abs_r2	Abs_r1	Abs_t1	Abs_t2	neck_flexion	neck_bending	neck_rotation	arm_flex_r	arm_add_r	arm_rot_r	elbow_flex_r	pro_sup_r	wrist_flex_r	wrist_dev_r	arm_flex_l	arm_add_l	arm_rot_l	elbow_flex_l	pro_sup_l	wrist_flex_l	wrist_dev_l
      0.00000000	      2.70956248	     -5.60505422	     90.60856104	      0.18407701	      0.47534321	      1.00783901	     15.46808720	      7.09645530	      3.72613966	     28.66437645	      0.50028775	     53.30876191	      0.86593964	      0.00000000	      9.12108496	      0.17488208	      3.14989116	     20.33371292	      0.35489024	     51.43711004	     -9.50488024	      0.00000000	      0.33363672	      0.62685628	      0.64075346	      0.61959676	      0.83371885	      0.68080055	      0.54813177	      1.52413835	      0.68080055	      0.38131341	      1.52413835	      0.56065928	      0.30981506	      1.27828532	      0.52061219	      0.19064002	      0.97100037	      0.48056510	      2.38313374	      7.09112356	      3.56367853	      0.00000000	      0.00000000	     27.59423862	     -5.86414756	     -4.31728890	     19.58057736	     -0.17465721	     60.74018312	     29.51954139	     82.46067365	      9.71937882	      6.26422385	     24.32311956	      1.56020119	     81.53453530	     25.85770832	     58.14257873	      2.88674413	      1.77710974
      0.01694915	      2.38146893	     -5.63529910	     90.22713439	      0.18376522	      0.47618270	      1.00644454	     15.09625840	      6.69311811	      3.91516271	     28.12009059	      0.49078817	     53.37692726	      1.58369819	      0.00000000	      9.40926349	      0.62417507	      3.77686692	     20.59650192	      0.35947677	     52.12401200	     -9.33306868	      0.00000000	      0.34672307	      0.59637316	      0.69420997	      0.64389940	      0.79317631	      0.73759810	      0.56963132	      1.45002171	      0.73759810	      0.39626979	      1.45002171	      0.60743373	      0.32196704	      1.21612415	      0.56404560	      0.19811756	      0.92378203	      0.52065748	      2.47660818	      6.74629249	      3.86098761	      0.00000000	      0.00000000	     27.55818560	     -5.88576746	     -4.54155748	     18.96648217	      0.09928619	     59.90665325	     29.25531508	     82.46600982	      9.76267230	      5.84241326	     22.90306051	      1.46351106	     79.20891087	     25.69013997	     54.83262651	      3.40382777	      0.83505794
      0.03389831	      2.27325473	     -5.51035762	     90.21129849	      0.18272665	      0.47703753	      1.00595271	     14.74764187	      6.14430517	      2.63737574	     27.81280022	      0.48542494	     53.56290958	      3.38128609	      0.00000000	      9.40497659	      0.90232191	      4.54038069	     20.64381815	      0.36030260	     52.48059070	     -9.27084769	      0.00000000	      0.33571692	      0.59845244	      0.74431682	      0.62345990	      0.79594175	      0.79083662	      0.55154934	      1.45507727	      0.79083662	      0.38369087	      1.45507727	      0.65127722	      0.31174674	      1.22036422	      0.60475742	      0.19182865	      0.92700283	      0.55823762	      2.39799242	      6.76981371	      4.13966686	      0.00000000	      0.00000000	     27.47639908	     -6.02649156	     -4.35640233	     18.65241575	     -0.09164865	     59.31745159	     29.27671159	     82.15009436	     10.02084730	      6.05998925	     23.82869878	      1.86882707	     88.74122432	     25.54890052	     31.03679045	      2.38382421	      0.48440120
      0.05084746	      2.15070361	     -5.39563700	     90.03981212	      0.18289628	      0.47747394	      1.00562289	     14.38047468	      5.96464468	      2.58660771	     27.44225952	      0.47895778	     53.50069978	      3.68210598	      0.00000000	      9.33980661	      0.89017428	      3.83757260	     20.72090018	      0.36164793	     52.91336105	     -7.98101404	      0.00000000	      0.31847155	      0.58643644	      0.79652731	      0.59143351	      0.77996046	      0.84631027	      0.52321691	      1.42586155	      0.84631027	      0.36398113	      1.42586155	      0.69696139	      0.29573268	      1.19586118	      0.64717844	      0.18197464	      0.90839004	      0.59739548	      2.27481042	      6.63388627	      4.43004593	      0.00000000	      0.00000000	     27.46474041	     -6.16249389	     -4.54892038	     18.85426437	     -0.18688292	     60.72884659	     29.02651549	     79.21629082	      9.71997820	      6.01691362	     23.39495460	      1.78062325	     87.93687806	     25.58222169	     31.05870946	      2.50471479	      0.10668340
      0.06779661	      2.00868000	     -5.37312308	     90.20890056	      0.18267086	      0.47756035	      1.00576402	     14.19800062	      5.69253693	      2.20777674	     27.19462908	      0.47463582	     53.45242253	      3.81036408	      0.00000000	      9.34268595	      1.16816563	      4.55564299	     20.78740941	      0.36280874	     52.82313262	     -8.26960137	      0.00000000	      0.31873248	      0.57371058	      0.80213509	      0.59191809	      0.76303508	      0.85226854	      0.52364559	      1.39491992	      0.85226854	      0.36427935	      1.39491992	      0.70186821	      0.29597498	      1.16991062	      0.65173476	      0.18212374	      0.88867770	      0.60160132	      2.27667424	      6.48992888	      4.46123475	      0.00000000	      0.00000000	     27.41928074	     -5.83871636	     -3.88111578	     19.09249117	     -0.24457135	     61.65471277	     28.62689342	     78.45150674	      9.63345683	      5.31004243	     23.72756706	      1.83919930	     90.56392609	     25.48281719	     27.73387572	      2.40110307	     -0.92435649
      0.08474576	      1.99095306	     -5.32000398	     90.13389322	      0.18282092	      0.47755299	      1.00614240	     14.00666644	      5.61536246	      2.06924714	     26.96752712	      0.47067214	     53.34906036	      3.87162127	      0.00000000	      9.20256672	      1.18420791	      4.49189812	     20.74717156	      0.36210645	     52.73017069	     -8.11912785	      0.00000000	      0.31054703	      0.57396508	      0.87385855	      0.57671688	      0.76337356	      0.92847471	      0.51019771	      1.39553871	      0.92847471	      0.35492420	      1.39553871	      0.76462623	      0.28837397	      1.17042960	      0.71001007	      0.17744657	      0.88907192	      0.65539391	      2.21820635	      6.49280783	      4.86013910	      0.00000000	      0.00000000	     27.37556858	     -6.14852374	     -4.14775072	     19.37689223	     -0.56311836	     62.76687191	     28.55484102	     76.65046780	      9.40470331	      4.90431615	     24.19305966	      2.08413956	     93.11779973	     25.17202478	     25.55559231	      2.51426881	     -1.90519876
      0.10169492	      1.97211950	     -5.34466138	     90.16124369	      0.18301181	      0.47718837	      1.00691956	     13.99352165	      5.55187867	      1.92505287	     26.90488525	      0.46957883	     53.25848624	      3.73941763	      0.00000000	      9.16897081	      1.20632311	      4.48363618	     20.76199398	      0.36236515	     52.55454028	     -8.08231536	      0.00000000	      0.31189235	      0.57361755	      0.89849586	      0.57921528	      0.76291135	      0.95465185	      0.51240794	      1.39469372	      0.95465185	      0.35646176	      1.39469372	      0.78618388	      0.28962323	      1.16972092	      0.73002789	      0.17821529	      0.88853359	      0.67387190	      2.22781586	      6.48887650	      4.99716444	      0.00000000	      0.00000000	     27.31938544	     -6.18692059	     -4.09293870	     19.54055294	     -0.70052338	     62.74005719	     28.53453533	     76.61349479	      9.39042853	      4.86420927	     24.31907969	      2.08212680	     93.11702361	     25.19240757	     25.57986986	      2.50716405	     -1.96657678
